<svg id="Layer_1" data-name="Layer 1" xmlns="http://www.w3.org/2000/svg" viewBox="0 0 3422.35 902.46"><defs><style>.cls-1{fill:#f2f2f2;}.cls-2{fill:#f59c1b;}.cls-3{fill:#e61d4b;}.cls-4{fill:#9eb81e;}.cls-5{fill:#6fa0d6;}.cls-6{fill:#b5cd26;}.cls-7{fill:#fcdf0e;}.cls-8{fill:#4e91ce;}.cls-10,.cls-14,.cls-22,.cls-34,.cls-9{fill:#010101;}.cls-10{font-size:62.96px;}.cls-10,.cls-14,.cls-22,.cls-34{font-family:VerveineW01-Regular;}.cls-11{letter-spacing:-0.01em;}.cls-12{letter-spacing:-0.02em;}.cls-13{letter-spacing:-0.05em;}.cls-14{font-size:73px;}.cls-15{letter-spacing:-0.02em;}.cls-16{letter-spacing:-0.02em;}.cls-17{letter-spacing:-0.03em;}.cls-18{letter-spacing:-0.04em;}.cls-19{letter-spacing:0em;}.cls-20{letter-spacing:0em;}.cls-21{letter-spacing:-0.01em;}.cls-22{font-size:69px;}.cls-23{letter-spacing:-0.03em;}.cls-24{letter-spacing:-0.02em;}.cls-25{letter-spacing:0em;}.cls-26{letter-spacing:-0.03em;}.cls-27{letter-spacing:-0.02em;}.cls-28{letter-spacing:-0.01em;}.cls-29{letter-spacing:-0.01em;}.cls-30{letter-spacing:-0.02em;}.cls-31{letter-spacing:-0.05em;}.cls-32{letter-spacing:-0.03em;}.cls-33{letter-spacing:0em;}.cls-34{font-size:76px;}.cls-35{letter-spacing:-0.02em;}.cls-36{letter-spacing:0em;}.cls-37{letter-spacing:-0.02em;}.cls-38{letter-spacing:-0.01em;}.cls-39{letter-spacing:-0.05em;}</style></defs><path class="cls-1" d="M2937.6,885.07c169.81-6.94,438.84-17.92,479.4-127.31,35.49-95.73-111.15-247.45-274.64-312.5-158.76-63.17-270.69-19.66-588.28,16.64C2341.18,486.23,2157,489,1788.66,494.45c-329.08,4.9-493.62,7.34-709.35-16.64-542.4-60.29-723.65-207.74-910.86-97.65C37.7,457.05-36.49,624.6,18.13,712.18c55.87,89.57,230.41,69.76,659,65.11,0,0,321.47-3.5,830.42,13,476.28,15.45,714.42,23.18,950.68,58.59C2578.2,866.89,2727,893.66,2937.6,885.07Z"/><rect class="cls-2" x="2996.02" y="501.94" width="359" height="359" transform="matrix(-0.96, -0.27, 0.27, -0.96, 6052.4, 2188.69)"/><rect class="cls-3" x="2091.8" y="407.54" width="288.45" height="288.45" transform="translate(-51.79 286.93) rotate(-7.26)"/><rect class="cls-4" x="2344.78" y="586.61" width="288.45" height="288.45" transform="translate(98.22 -275.84) rotate(6.47)"/><rect class="cls-5" x="2710.49" y="446.02" width="288.45" height="288.45" transform="translate(-20.45 109.38) rotate(-2.19)"/><rect class="cls-6" x="1384.96" y="438.84" width="334.28" height="334.28" transform="translate(62.68 -140.91) rotate(5.31)"/><path class="cls-7" d="M758.17,396.32,700,678.84,982.48,737l58.21-282.51Z"/><path class="cls-2" d="M1698.86,556.64l40.58,285.58L2025,801.65l-40.57-285.59Z"/><rect class="cls-3" x="368.01" y="382.78" width="349.28" height="349.28"/><rect class="cls-5" x="1016.18" y="517.52" width="288.45" height="288.45" transform="translate(-46.18 88.51) rotate(-4.28)"/><rect class="cls-8" x="65.48" y="421.86" width="288.45" height="288.45" transform="translate(509.38 1090.13) rotate(170.56)"/><path class="cls-9" d="M785,258.9q0-13.93,7.85-33.22,10.73-26.06,11.79-37.85,0-2.85-4.64-6.43c-3.34-2.61-5-4.64-5-6.07a4.87,4.87,0,0,1,1.42-3.57q1.42-2.14,7.5-3.21,6.07-1.43,6.79-3.93,6.42-17.49,20.35-66.42,6.07-21.42,11.25-37.32t9.82-27.31q2.15-5,8.93-5A13.76,13.76,0,0,1,870,31.78q10,8.56,12.85,25.71c.72,4.77,1.43,9.64,2.15,14.64s1.3,9.88,1.78,14.64q8.93,42.15,18.21,76.6t18.93,62.31a31.49,31.49,0,0,1,2.14,10q0,7.15-6.07,12.5-5.71,5-8.21,5Q894.29,250,889.65,225q-4.65-27.14-11.79-45.35l-24.28,2.14q-13.92,1.8-21.78,8.57-1.8,5.71-4.47,15.36t-5.89,23.92q-6.08,26.43-11.78,39.64c-1.2,2.86-3.57,4.28-7.14,4.28h-2.33a5.93,5.93,0,0,1-2.67-.71q-11.79-3.57-12.5-10.71Zm86.77-101.42q-.72-7.14-1.78-14.46t-2.86-15.18q-1.78-7.14-3.39-14.28t-3.4-14.29q-10.71,30-18.56,59.28Q847.5,157.49,871.79,157.48Z"/><path class="cls-9" d="M967.49,15.71a44.76,44.76,0,0,1,1.07-9.28l4.64-2.32a10.35,10.35,0,0,1,4.65-.9,19.69,19.69,0,0,1,9.82,2.15,15.47,15.47,0,0,1,5.71,5.35A20.86,20.86,0,0,1,996.06,18a47.53,47.53,0,0,1,.71,8q0,7.5.36,13c.23,3.7.36,7.32.36,10.89,0,3.81-.07,7.56-.18,11.25s-.18,7.44-.18,11.25q0,3.93-.18,8.21t-.18,8.93a19.91,19.91,0,0,0,.36,3.93c.23,1.19,1.31,1.79,3.21,1.79a40.44,40.44,0,0,0,16.25-3,40.44,40.44,0,0,1,16.25-3q5,0,6.78,3.93a18.88,18.88,0,0,1,1.79,7.86,11.41,11.41,0,0,1-2.14,7.32,14.15,14.15,0,0,1-5.36,4.11,40.3,40.3,0,0,1-7,2.32c-2.5.59-5,1.24-7.32,2a57.32,57.32,0,0,1-7.68,2.68,58.38,58.38,0,0,0-8.39,3,22.92,22.92,0,0,0-6.79,4.65,9.65,9.65,0,0,0-2.85,7.14c0,1.66.05,3.21.18,4.64s.17,2.86.17,4.28-.06,2.92-.17,4.47-.18,3.16-.18,4.82a251.12,251.12,0,0,0,2.32,33.39q2.31,17.32,5.17,33.39,1.08,5,2.51,10a34.32,34.32,0,0,1,1.42,9.28q0,6.08-3.21,8.93A17.8,17.8,0,0,1,995,251.4a36.46,36.46,0,0,1-4.29.71,13.92,13.92,0,0,1-9.1-3.39,30.38,30.38,0,0,1-7-8.39,73.29,73.29,0,0,1-3-13.58Q970.34,218.19,970,211q-1.07-17.49-1.43-34.81t-.71-34.82a18.93,18.93,0,0,0-.18-2.68,9.15,9.15,0,0,0-.89-2.68,38.24,38.24,0,0,0-10.72,3.22,22.05,22.05,0,0,1-10,2.14,17.23,17.23,0,0,1-12.14-4.64q-5-4.64-7.5-7.5a37.06,37.06,0,0,1,1.79-10,48.26,48.26,0,0,1,8.57-2.5q3.93-.7,7.68-1.43c2.5-.47,5-1.07,7.68-1.78a42.24,42.24,0,0,0,8.57-3.57c3.8,0,6-1.49,6.6-4.47a40.42,40.42,0,0,0,.9-7.68c0-4.28-.07-7.91-.18-10.89s-.18-7.19-.18-12.67c0-3.58-.06-7.2-.18-10.9s-.18-7.32-.18-10.89Z"/><path class="cls-9" d="M1073.54,15.71a44.14,44.14,0,0,1,1.08-9.28l4.64-2.32a10.3,10.3,0,0,1,4.64-.9,19.66,19.66,0,0,1,9.82,2.15,15.58,15.58,0,0,1,5.72,5.35,21.05,21.05,0,0,1,2.67,7.32,46.55,46.55,0,0,1,.72,8q0,7.5.35,13c.24,3.7.36,7.32.36,10.89q0,5.71-.18,11.25t-.18,11.25q0,3.93-.17,8.21c-.13,2.86-.18,5.84-.18,8.93a20.74,20.74,0,0,0,.35,3.93c.24,1.19,1.31,1.79,3.22,1.79a40.44,40.44,0,0,0,16.25-3,40.39,40.39,0,0,1,16.24-3c3.34,0,5.59,1.31,6.79,3.93a18.86,18.86,0,0,1,1.78,7.86,11.41,11.41,0,0,1-2.14,7.32,14,14,0,0,1-5.35,4.11,40.7,40.7,0,0,1-7,2.32q-3.75.89-7.32,2a56.65,56.65,0,0,1-7.67,2.68,58.51,58.51,0,0,0-8.4,3,22.87,22.87,0,0,0-6.78,4.65,9.65,9.65,0,0,0-2.86,7.14c0,1.66.06,3.21.18,4.64s.18,2.86.18,4.28-.06,2.92-.18,4.47-.18,3.16-.18,4.82a251.12,251.12,0,0,0,2.32,33.39q2.32,17.32,5.18,33.39c.72,3.33,1.54,6.67,2.5,10a34,34,0,0,1,1.43,9.28q0,6.08-3.21,8.93a17.84,17.84,0,0,1-7.15,3.93,36.79,36.79,0,0,1-4.28.71,14,14,0,0,1-9.11-3.39,30.17,30.17,0,0,1-7-8.39,73.18,73.18,0,0,1-3-13.58q-1.25-8.56-1.6-15.71-1.08-17.49-1.43-34.81t-.72-34.82a18.93,18.93,0,0,0-.18-2.68,8.86,8.86,0,0,0-.89-2.68,38.16,38.16,0,0,0-10.71,3.22,22.08,22.08,0,0,1-10,2.14,17.21,17.21,0,0,1-12.14-4.64,104,104,0,0,1-7.5-7.5,36.67,36.67,0,0,1,1.79-10,48,48,0,0,1,8.57-2.5q3.92-.7,7.67-1.43c2.5-.47,5.06-1.07,7.68-1.78a42,42,0,0,0,8.57-3.57q5.71,0,6.61-4.47a40.32,40.32,0,0,0,.89-7.68q0-6.42-.18-10.89t-.18-12.67c0-3.58-.06-7.2-.18-10.9s-.18-7.32-.18-10.89Z"/><path class="cls-9" d="M1166.74,237.83a22.57,22.57,0,0,0,.9-6.61q.18-4.82.18-12c0-4.52-.06-9.41-.18-14.64s-.24-10.06-.36-14.47-.24-8.21-.36-11.42-.18-5.06-.18-5.54V161.41q0-7.86-.53-15.72t-.89-15.71v-1.43a14.51,14.51,0,0,0-1.43-6.24,15.39,15.39,0,0,1-1.43-6.61,16.9,16.9,0,0,1,3.93-7.14q2.49-2.5,8.93-2.5c4,0,7.26.77,9.64,2.32a15.32,15.32,0,0,1,5.35,5.71,22.4,22.4,0,0,1,2.33,7.68c.35,2.86.65,5.59.89,8.21l1.07,18.93a41.41,41.41,0,0,0,7.5-8.39q3.93-5.53,8.21-12t8.93-12.5a55.54,55.54,0,0,1,9.64-10,15.93,15.93,0,0,1,7.14-1.43q8.58,0,13.75,3.21t8,10.36a19.47,19.47,0,0,1-3.93,7.32q-3.23,4.11-7.32,8.57t-8.57,9.28a86.83,86.83,0,0,0-7.68,9.47,101.45,101.45,0,0,0-10.71,13.92,174.35,174.35,0,0,0-16.79,33c-1.91,5.13-2.85,9.24-2.85,12.33,0,1.9,0,4.58.18,8s.17,6.13.17,8a56,56,0,0,1-.71,8.75,24.13,24.13,0,0,1-2.86,8.22,17.58,17.58,0,0,1-5.71,6.07,16.85,16.85,0,0,1-9.29,2.32c-4.52,0-8.15-1.38-10.89-4.11a13.82,13.82,0,0,1-4.11-10.18Z"/><path class="cls-9" d="M1314.58,234.25a12.74,12.74,0,0,1-1.43,5.72,28.42,28.42,0,0,1-5.35,6.78,55.11,55.11,0,0,1-11.25-1.07,19.54,19.54,0,0,1-8.93-4.28,21.25,21.25,0,0,1-5.89-9.29q-2.14-6.06-2.14-16.42a60.29,60.29,0,0,0-1.25-12.14,59.67,59.67,0,0,1-1.25-12.15,267.48,267.48,0,0,0-2.15-34.63,269.47,269.47,0,0,1-2.14-34.64,12.77,12.77,0,0,1,6.07-11.43,56.45,56.45,0,0,1,6.79-1.61c2.14-.36,4.52-.77,7.14-1.25a16.13,16.13,0,0,1,7.5,4.11c1.66,1.79,3.21,3.51,4.64,5.18q-.36,3.57-.53,7.14c-.13,2.38-.18,4.88-.18,7.5q0,13.57,1.42,28.92t3.22,29.28q1.79,13.93,3.39,25.36t2.32,17.5Zm-31.42-201q1.78-1.78,6.42-1.78a23.1,23.1,0,0,1,7.32,1.24,26.12,26.12,0,0,1,7,3.57,21.57,21.57,0,0,1,5.18,5.18,10.61,10.61,0,0,1,2,6.07q0,6.8-3.39,9.11c-2.27,1.55-5.42,2.32-9.47,2.32a27.21,27.21,0,0,1-8-1.25,36.67,36.67,0,0,1-7.32-3,23,23,0,0,1-5.18-3.74,5.53,5.53,0,0,1-2-3.75,28,28,0,0,1,.89-7.5Q1277.44,36.42,1283.16,33.21Z"/><path class="cls-9" d="M1371.36,133.2v11.24c0,2.74.05,5.31.18,7.68s.17,3.93.17,4.65a141.19,141.19,0,0,1,7.33-12.86q4.1-6.43,13.39-18.21.71-.72,3.21-2.86a50.89,50.89,0,0,1,6.61-4.64,48.49,48.49,0,0,1,9.28-4.29,33.16,33.16,0,0,1,10.89-1.78q10.71,0,17.32,5.89a41.34,41.34,0,0,1,10.36,14.46,71.27,71.27,0,0,1,5.17,18.57,128.14,128.14,0,0,1,1.43,17.86q0,4.28-.71,12.14a118.17,118.17,0,0,1-2.86,16.78,110.11,110.11,0,0,1-5.89,17.68,42.44,42.44,0,0,1-9.82,14.46,56.17,56.17,0,0,1-19.28,11.43,60.74,60.74,0,0,1-20,3.92,109.81,109.81,0,0,1-17.68-1.42,131.23,131.23,0,0,1-17-3.93,11.11,11.11,0,0,1-4.1-4.11,68.06,68.06,0,0,1-3.93-7,60,60,0,0,1-3.39-8.21c-1-2.86-1.79-5.6-2.51-8.22q-1.07-1.07-2.14-7t-2-13.93q-.9-8-1.43-16.78t-.54-15.53q0-30,1.07-59.82t5.36-64.81a116.22,116.22,0,0,1,.72-13.21,77.27,77.27,0,0,1,2.85-13.58q1.79-5.34,8-6.6A55.54,55.54,0,0,1,1372.07,0a13.45,13.45,0,0,1,6.07,1.43,6.7,6.7,0,0,1,3.57,5q-1.79,22.86-5,43.21a347.7,347.7,0,0,0-3.93,43.2Zm18.21,42.85c-1.2,3.57-2.32,6.84-3.39,9.82s-2,6-2.86,9.1-1.55,6.38-2.14,9.83a99.16,99.16,0,0,0-1.25,11.6q3.91,4.29,7.5,5a48.56,48.56,0,0,0,9.28.71,23.26,23.26,0,0,0,14.46-6.78,41.37,41.37,0,0,0,8.75-13.93,69.68,69.68,0,0,0,4.29-17.67,158.7,158.7,0,0,0,1.07-17.68q0-3.21-.18-7.5a46,46,0,0,0-1.07-8.21,30.61,30.61,0,0,0-2.32-6.79q-1.44-2.85-3.57-2.85c-1.43,0-3.52,1.19-6.25,3.57a74.65,74.65,0,0,0-8.39,8.74,123,123,0,0,0-8,10.9,44.7,44.7,0,0,0-5.18,10Z"/><path class="cls-9" d="M1484.91,142.84q0-9.65.72-18.57a73.26,73.26,0,0,1,3.57-17.5,4.73,4.73,0,0,1,2-1.6,22,22,0,0,1,3.75-1.61c.72-.24,1.49-.48,2.32-.72s1.84-.47,3-.71a28.35,28.35,0,0,1,11.42,4.28,11.51,11.51,0,0,1,5.72,10.36,44.07,44.07,0,0,1-1.07,10.18,45.28,45.28,0,0,0-1.07,10.53,111,111,0,0,1-.9,16.07,70.23,70.23,0,0,0-.89,10.71q0,17.15,1.07,31.61t1.79,22q5.7-.72,12.67-9.82a155.45,155.45,0,0,0,13.75-22,285.67,285.67,0,0,0,12.5-27.14q5.71-14.28,9.29-25.36a28,28,0,0,0,1.24-9.28,26.54,26.54,0,0,1,.9-8.39,11.13,11.13,0,0,1,4.82-6.25q3.75-2.49,12.67-2.5a1.6,1.6,0,0,1,.72.18,1.51,1.51,0,0,0,.71.17c1.91,0,4.16,1,6.79,2.86a21.65,21.65,0,0,1,5.71,5.71q0,21.08-1.25,33a202.89,202.89,0,0,0-1.25,20.53,161.24,161.24,0,0,0,2.32,29.46q2.33,12.31,7.68,19.82c1.43,1.67,2.73,3.27,3.93,4.82a26.91,26.91,0,0,1,3.21,5.54,12.53,12.53,0,0,1-2.32,5.53,9.52,9.52,0,0,1-3.75,2.86,19.42,19.42,0,0,1-4.64,1.25,36.85,36.85,0,0,0-5,1.07,26.17,26.17,0,0,1-12.68-6.43,36.54,36.54,0,0,1-7.85-11.25,59.23,59.23,0,0,1-4.46-14.64q-1.44-8-2.51-16.6l-1.42,2.85q-2.86,6.07-7.68,16.07a151.72,151.72,0,0,1-11.25,19.46,78.41,78.41,0,0,1-14.82,16.43q-8.4,7-18,7-10.36,0-16.61-4.1t-9.64-13.4q-3.39-9.27-4.64-23.92t-1.25-36.07a71.4,71.4,0,0,0,.71-10v-22.5Z"/><path class="cls-9" d="M1656,15.71A44.76,44.76,0,0,1,1657,6.43l4.64-2.32a10.33,10.33,0,0,1,4.64-.9,19.66,19.66,0,0,1,9.82,2.15,15.51,15.51,0,0,1,5.72,5.35,21.26,21.26,0,0,1,2.68,7.32,47.53,47.53,0,0,1,.71,8q0,7.5.36,13c.23,3.7.35,7.32.35,10.89q0,5.71-.17,11.25c-.13,3.69-.18,7.44-.18,11.25,0,2.62-.07,5.36-.18,8.21s-.18,5.84-.18,8.93a19.91,19.91,0,0,0,.36,3.93c.23,1.19,1.3,1.79,3.21,1.79a40.44,40.44,0,0,0,16.25-3,40.41,40.41,0,0,1,16.25-3q5,0,6.78,3.93a18.88,18.88,0,0,1,1.79,7.86,11.41,11.41,0,0,1-2.15,7.32,14,14,0,0,1-5.35,4.11,40.41,40.41,0,0,1-7,2.32c-2.49.59-4.94,1.24-7.32,2a56.65,56.65,0,0,1-7.67,2.68,59,59,0,0,0-8.4,3,22.87,22.87,0,0,0-6.78,4.65,9.65,9.65,0,0,0-2.86,7.14c0,1.66.06,3.21.18,4.64s.18,2.86.18,4.28-.06,2.92-.18,4.47-.18,3.16-.18,4.82a249.5,249.5,0,0,0,2.33,33.39q2.31,17.32,5.17,33.39,1.08,5,2.5,10a34,34,0,0,1,1.43,9.28q0,6.08-3.21,8.93a17.84,17.84,0,0,1-7.15,3.93,36.79,36.79,0,0,1-4.28.71,14,14,0,0,1-9.11-3.39,30.17,30.17,0,0,1-7-8.39,74,74,0,0,1-3-13.58q-1.24-8.56-1.6-15.71-1.08-17.49-1.43-34.81t-.71-34.82a20.54,20.54,0,0,0-.18-2.68,9.19,9.19,0,0,0-.9-2.68,38.27,38.27,0,0,0-10.71,3.22,22.08,22.08,0,0,1-10,2.14,17.21,17.21,0,0,1-12.14-4.64c-3.34-3.09-5.83-5.59-7.5-7.5a36.67,36.67,0,0,1,1.79-10,48,48,0,0,1,8.57-2.5q3.93-.7,7.67-1.43c2.5-.47,5.06-1.07,7.68-1.78a41.78,41.78,0,0,0,8.57-3.57q5.71,0,6.61-4.47a40.32,40.32,0,0,0,.89-7.68q0-6.42-.18-10.89t-.17-12.67c0-3.58-.07-7.2-.18-10.9s-.18-7.32-.18-10.89Z"/><path class="cls-9" d="M1725.59,183.55a107.66,107.66,0,0,1,3.4-26.61,82.42,82.42,0,0,1,10.17-24.1A57,57,0,0,1,1756,115.52a41.15,41.15,0,0,1,23.21-6.61,42.76,42.76,0,0,1,16.25,2.86,35.11,35.11,0,0,1,11.6,7.5,30.8,30.8,0,0,1,7,10.53,33.29,33.29,0,0,1,2.32,12.32,43.13,43.13,0,0,1-11.78,29.64,43.39,43.39,0,0,1-14.1,9.82,50.67,50.67,0,0,1-19.11,4.11,30,30,0,0,1-8.21-.36,84.56,84.56,0,0,1-8.22-2.14,16.46,16.46,0,0,0-.35,3v2q.35,13.22,4.28,20.71t8.57,11.25a23.55,23.55,0,0,0,8.93,4.82A30.4,30.4,0,0,0,1782,226q11.07,0,18.39-5L1816.65,210l3.93,1.61a9.55,9.55,0,0,1,3.93,3.39,29.66,29.66,0,0,0,.71,3.39,14.6,14.6,0,0,1,.36,3.75,16.72,16.72,0,0,1-2.68,8.4,30.88,30.88,0,0,1-5.18,5.89q-9.29,7.86-17.32,10.17t-20.89,2.33a51.3,51.3,0,0,1-14.1-2.5A88.88,88.88,0,0,1,1751.3,241a66.59,66.59,0,0,1-13.39-12.86,54.54,54.54,0,0,1-7.5-13.56,63.21,63.21,0,0,1-3.57-14.83Q1726,192.13,1725.59,183.55Zm31.07-19.29a26.37,26.37,0,0,0,4.46.54q3,.18,4.83.18,12.13,0,18.74-6.07a19.2,19.2,0,0,0,6.61-14.64,16.48,16.48,0,0,0-2.86-9.29,9,9,0,0,0-7.85-4.28,34.12,34.12,0,0,0-7,.71,7.76,7.76,0,0,0-5.18,3.57,41.51,41.51,0,0,1-3.21,3.57,19.37,19.37,0,0,0-3.39,5,49.57,49.57,0,0,0-3,8A67.28,67.28,0,0,0,1756.66,164.26Z"/><path class="cls-9" d="M1934.49,148.55c.48-2.14,2.26-4,5.36-5.71q5.36-2.85,6.07-5.72c.24-.94.59-4.16,1.07-9.64s1.07-13.57,1.79-24.28q-19.65-3.57-19.64-15,.34-10.35,12.5-16.42l22.85-9.29a109.62,109.62,0,0,1,15-6.43q8.21-2.85,18.21-5.71,8.92-2.49,17.5-4.64t17.5-4.29a14.33,14.33,0,0,1,4.28-.35q9.64,0,22.5,7.5c.23,1,.83,2.74,1.78,5.35a19.42,19.42,0,0,1,1.43,5.72,5,5,0,0,1-2.5,4.64q-6.78,2.85-16.43,5.89t-22.49,6.61q-12.86,3.57-22.5,6.6t-16.43,5.89q-1.42,4.29-2.67,14.65t-2,26.78a37.5,37.5,0,0,0,13.21,2.14,56.51,56.51,0,0,0,7-.53l9.82-1.26q5.71-.7,9.82-1.25a56.23,56.23,0,0,1,7-.53q10,0,17.14,4.28,5,7.15,5,9.29a4.36,4.36,0,0,1-2.5,3.93c-.24.24-.77.71-1.6,1.42a34.94,34.94,0,0,0-3.4,3.58q-2.14,2.85-7.14,2.85-7.5,1.44-27.49,2.15-16.8.71-26.79,4.28-6.78,25-6.78,41.78a42.37,42.37,0,0,0,2.85,16.43q14.64,10.37,48.21,10.35c1.66,0,3.27-.05,4.82-.18s3.27-.17,5.18-.17,3.93-.9,6.07-2.68,3.93-2.68,5.36-2.68a2.49,2.49,0,0,0,1.07-.18,2.43,2.43,0,0,1,1.07-.18q8.58,0,11.07,15.36a5.84,5.84,0,0,0,.18,1.43,5.76,5.76,0,0,1,.18,1.42,13.52,13.52,0,0,1-3,8.75,10.89,10.89,0,0,1-8,4.11q-3.23,0-6.43.18c-2.14.11-4.29.18-6.43.18q-34.27,0-62.13-7.15-10-2.49-18.22-11.07t-9.28-19.28q-.72-7.84-1.25-15t-.53-14.28q0-7.14.53-13.75t1.25-12.68q-8.93-6.42-8.93-11.78Z"/><path class="cls-9" d="M2099.11,236.4a73.92,73.92,0,0,1-7.5-15,168.31,168.31,0,0,1-5.53-17.68q-2.32-9.1-3.75-17.67a139.07,139.07,0,0,1-1.79-15,94,94,0,0,0-5.53-23.93,68.9,68.9,0,0,1-4.46-23.92c0-4,1.78-6.48,5.35-7.32a44.3,44.3,0,0,1,10-1.25,23.33,23.33,0,0,1,4.11.53,23.88,23.88,0,0,1,5.35,1.79,27,27,0,0,1,5,3,8.3,8.3,0,0,1,3,4.29,108.56,108.56,0,0,0,1.43,16.43q1.43,9.28,3.39,18.39t3.75,17.14q1.79,8,2.5,13,6.06-7.5,11.25-20.53T2136.43,143a134.75,134.75,0,0,1,12.14-22.32q6.6-9.65,15.89-10.71a61,61,0,0,1,11.78.89,14.61,14.61,0,0,1,6.43,2.68,8.6,8.6,0,0,1,2.86,4.64q.7,2.86,1.43,6.78a156.12,156.12,0,0,0-10.54,13q-4.47,6.25-8.39,12.68t-7.5,13.56q-3.57,7.16-7.85,15.36c-.48,1.19-1,2.44-1.61,3.75a36.94,36.94,0,0,1-2,3.75,55.93,55.93,0,0,0-8,16.25q-3,9.47-6.78,18.39a67.16,67.16,0,0,1-9.11,15.71q-5.35,6.78-15,7.85Z"/><path class="cls-9" d="M2190.17,183.55a107.66,107.66,0,0,1,3.4-26.61,82.69,82.69,0,0,1,10.17-24.1,57,57,0,0,1,16.79-17.32,41.15,41.15,0,0,1,23.21-6.61,42.72,42.72,0,0,1,16.25,2.86,35,35,0,0,1,11.6,7.5,30.83,30.83,0,0,1,7,10.53,33.49,33.49,0,0,1,2.32,12.32,43.2,43.2,0,0,1-11.79,29.64,43.39,43.39,0,0,1-14.1,9.82,50.63,50.63,0,0,1-19.11,4.11,30,30,0,0,1-8.21-.36,84.56,84.56,0,0,1-8.22-2.14,16.46,16.46,0,0,0-.35,3v2q.34,13.22,4.28,20.71t8.57,11.25a23.55,23.55,0,0,0,8.93,4.82,30.4,30.4,0,0,0,5.71,1.07q11.07,0,18.39-5L2281.24,210l3.92,1.61a9.49,9.49,0,0,1,3.93,3.39,27.35,27.35,0,0,0,.72,3.39,15.16,15.16,0,0,1,.35,3.75,16.72,16.72,0,0,1-2.68,8.4,31.18,31.18,0,0,1-5.17,5.89q-9.3,7.86-17.33,10.17t-20.88,2.33a51.36,51.36,0,0,1-14.11-2.5,88.73,88.73,0,0,1-14.1-5.36,66.4,66.4,0,0,1-13.4-12.86,54.54,54.54,0,0,1-7.5-13.56,63.21,63.21,0,0,1-3.57-14.83Q2190.54,192.13,2190.17,183.55Zm31.07-19.29a26.38,26.38,0,0,0,4.47.54c2,.12,3.62.18,4.82.18q12.13,0,18.74-6.07a19.17,19.17,0,0,0,6.61-14.64A16.48,16.48,0,0,0,2253,135a9,9,0,0,0-7.85-4.28,34.19,34.19,0,0,0-7,.71A7.74,7.74,0,0,0,2233,135a43.42,43.42,0,0,1-3.22,3.57,19.37,19.37,0,0,0-3.39,5,49.57,49.57,0,0,0-3,8A68.1,68.1,0,0,0,2221.24,164.26Z"/><path class="cls-9" d="M2341.23,192.12a36.56,36.56,0,0,0,8-12.86q3-7.84,5.89-15l.72-2.14a141.41,141.41,0,0,1,6.42-14.1,113.4,113.4,0,0,1,10-16.07,68.87,68.87,0,0,1,12.5-13q6.78-5.35,13.93-5.35a17.19,17.19,0,0,1,9.1,5.71,29.65,29.65,0,0,1,4.65,8.75q1.61,4.81,2.85,10a53.43,53.43,0,0,0,3.4,9.82,102.67,102.67,0,0,1,7,22.14q2.31,11.78,3.93,23.92t3.75,23.93a101.44,101.44,0,0,0,6.42,21.78,10.34,10.34,0,0,1-6.25,8.39,23,23,0,0,1-9.82,2.68,11.71,11.71,0,0,1-10-4.82,35.83,35.83,0,0,1-5.54-11.78,95,95,0,0,1-2.86-14.47,81.68,81.68,0,0,0-2.32-12.5,95.1,95.1,0,0,1-2.85-13.74q-1.08-7.68-2.5-15.54t-3.4-14.64a30.25,30.25,0,0,0-5.53-11.07,145.56,145.56,0,0,0-9.82,18q-3.75,8.39-6.78,16.07t-5.9,15a111.71,111.71,0,0,1-7.14,14.82,110.62,110.62,0,0,1-10.36,16.07,42.44,42.44,0,0,1-8.57,8.39,18.35,18.35,0,0,1-7.5,3.22,46.71,46.71,0,0,1-6.78.53q-3.57,0-8.75-3.57t-5.18-8.57q0-22.5.18-41.78t.18-40.71q0-6.06-.36-12.32t-.35-12.32a22.89,22.89,0,0,1,1.6-8.39,10.39,10.39,0,0,1,5.54-5.89c1.43,0,2.85-.06,4.28-.18s2.74-.18,3.93-.18a9.91,9.91,0,0,1,7.32,2.68,16.11,16.11,0,0,1,3.93,6.61,37.43,37.43,0,0,1,1.61,8.21q.35,4.29.35,7.14a30.57,30.57,0,0,0,.9,7.5,31.07,31.07,0,0,1,.89,7.5q0,13.22-.36,22.5t-.35,17.85Z"/><path class="cls-9" d="M2476.21,15.71a44.09,44.09,0,0,1,1.07-9.28l4.64-2.32a10.3,10.3,0,0,1,4.64-.9,19.66,19.66,0,0,1,9.82,2.15,15.51,15.51,0,0,1,5.72,5.35,21.05,21.05,0,0,1,2.67,7.32,46.55,46.55,0,0,1,.72,8q0,7.5.35,13c.24,3.7.36,7.32.36,10.89q0,5.71-.18,11.25t-.18,11.25q0,3.93-.17,8.21c-.13,2.86-.18,5.84-.18,8.93a20.74,20.74,0,0,0,.35,3.93c.24,1.19,1.31,1.79,3.22,1.79a40.44,40.44,0,0,0,16.25-3,40.39,40.39,0,0,1,16.24-3c3.34,0,5.59,1.31,6.79,3.93a18.86,18.86,0,0,1,1.78,7.86,11.41,11.41,0,0,1-2.14,7.32,14,14,0,0,1-5.35,4.11,40.7,40.7,0,0,1-7,2.32q-3.75.89-7.32,2a56.65,56.65,0,0,1-7.67,2.68,59,59,0,0,0-8.4,3,22.87,22.87,0,0,0-6.78,4.65,9.65,9.65,0,0,0-2.86,7.14c0,1.66.06,3.21.18,4.64s.18,2.86.18,4.28-.06,2.92-.18,4.47-.18,3.16-.18,4.82a251.12,251.12,0,0,0,2.32,33.39q2.33,17.32,5.18,33.39,1.08,5,2.5,10a34,34,0,0,1,1.43,9.28q0,6.08-3.21,8.93a17.84,17.84,0,0,1-7.15,3.93,36.79,36.79,0,0,1-4.28.71,14,14,0,0,1-9.11-3.39,30.17,30.17,0,0,1-7-8.39,73.18,73.18,0,0,1-3-13.58q-1.24-8.56-1.6-15.71-1.08-17.49-1.43-34.81t-.72-34.82a18.93,18.93,0,0,0-.18-2.68,8.86,8.86,0,0,0-.89-2.68,38.27,38.27,0,0,0-10.71,3.22,22.08,22.08,0,0,1-10,2.14,17.21,17.21,0,0,1-12.14-4.64,104,104,0,0,1-7.5-7.5,36.67,36.67,0,0,1,1.79-10,48,48,0,0,1,8.57-2.5q3.91-.7,7.67-1.43c2.5-.47,5.06-1.07,7.68-1.78a42,42,0,0,0,8.57-3.57q5.72,0,6.61-4.47a40.32,40.32,0,0,0,.89-7.68q0-6.42-.18-10.89t-.18-12.67c0-3.58-.06-7.2-.18-10.9s-.17-7.32-.17-10.89Z"/><path class="cls-9" d="M2604.05,172.83q7.14,13.59,13.21,27.32a75.82,75.82,0,0,1,6.07,30.89,46.08,46.08,0,0,1-11.42,30.71,39.76,39.76,0,0,1-12.86,9.64A36.92,36.92,0,0,1,2583,275q-7.5,0-13.75-5.89t-7-13.39a15.61,15.61,0,0,1,2.68-4.1c.83-.84,2.67-1.61,5.53-2.33q4.29,4.29,8.57,4.29,6.07,0,10.71-5.36t4.65-13.57a10.66,10.66,0,0,0-.36-3.57,157.29,157.29,0,0,0-10-29.1q-6.08-13-12-24.46t-10.18-21.61a52.39,52.39,0,0,1-4.28-20.53,114.35,114.35,0,0,1,1.42-17.68,65.16,65.16,0,0,1,5-17,36.31,36.31,0,0,1,9.47-12.86q5.88-5,15.17-5a10.87,10.87,0,0,1,2,.17,9.21,9.21,0,0,0,2,.18q3.57,0,6.07,3.75a33.94,33.94,0,0,1,3.57,6.61,5.46,5.46,0,0,1-2,4.46c-1.31,1.07-2.56,2.21-3.75,3.39a38.14,38.14,0,0,0-6.25,12.68,51.72,51.72,0,0,0-2,14.11v8.57a21.77,21.77,0,0,0,1.78,7.14q1.78,4.65,4.11,9.82t4.64,9.64q2.33,4.47,3.75,6.61Z"/><text class="cls-10" transform="matrix(0.85, -0.17, 0.19, 0.98, 125.24, 539.73)">I<tspan class="cls-11" x="12.02" y="0">n</tspan><tspan class="cls-12" x="38.22" y="0">v</tspan><tspan x="58.87" y="0">oice </tspan><tspan class="cls-13" x="0" y="75.55">P</tspan><tspan x="19.58" y="75.55">aid</tspan></text><text class="cls-14" transform="translate(437.41 492.46) scale(0.87 1)">O<tspan class="cls-15" x="30.22" y="0">rd</tspan><tspan x="80.23" y="0">er </tspan><tspan x="0" y="87.6">Shipped</tspan></text><text class="cls-10" transform="matrix(0.85, 0.18, -0.21, 0.98, 778.59, 483.51)">P<tspan class="cls-11" x="22.73" y="0">i</tspan><tspan x="34.12" y="0">zza </tspan><tspan x="0" y="75.55">Deli</tspan><tspan class="cls-16" x="67.93" y="75.55">v</tspan><tspan x="88.58" y="75.55">e</tspan><tspan class="cls-16" x="108.92" y="75.55">r</tspan><tspan x="127.12" y="75.55">ed</tspan></text><text class="cls-10" transform="matrix(0.87, -0.07, 0.08, 1, 1032.28, 606.09)">Appoi<tspan class="cls-17" x="107.41" y="0">n</tspan><tspan class="cls-16" x="132.34" y="0">t</tspan><tspan x="151.67" y="0">me</tspan><tspan class="cls-17" x="212.36" y="0">n</tspan><tspan x="237.29" y="0">t </tspan><tspan class="cls-18" x="0" y="75.55">R</tspan><tspan class="cls-19" x="26.76" y="75.55">e</tspan><tspan class="cls-11" x="47.09" y="75.55">s</tspan><tspan class="cls-20" x="61.7" y="75.55">che</tspan><tspan class="cls-21" x="123.65" y="75.55">d</tspan><tspan x="148.9" y="75.55">u</tspan><tspan class="cls-11" x="174.59" y="75.55">l</tspan><tspan x="186.61" y="75.55">ed</tspan></text><text class="cls-22" transform="matrix(0.86, 0.09, -0.11, 0.99, 1437.44, 536.13)">S<tspan class="cls-23" x="20.91" y="0">t</tspan><tspan x="41.4" y="0">u</tspan><tspan class="cls-24" x="69.55" y="0">d</tspan><tspan class="cls-25" x="96.87" y="0">e</tspan><tspan class="cls-26" x="119.16" y="0">n</tspan><tspan x="146.48" y="0">t </tspan><tspan x="0" y="82.8">En</tspan><tspan class="cls-27" x="57.68" y="82.8">r</tspan><tspan x="77.62" y="82.8">ol</tspan><tspan class="cls-28" x="116.4" y="82.8">l</tspan><tspan x="129.58" y="82.8">ed</tspan></text><text class="cls-10" transform="translate(1766.55 649.73) rotate(-9.52) scale(0.87 1)"><tspan class="cls-13">P</tspan><tspan class="cls-11" x="19.58" y="0">a</tspan><tspan class="cls-12" x="44.95" y="0">s</tspan><tspan x="58.93" y="0">s</tspan><tspan class="cls-29" x="74.17" y="0">w</tspan><tspan class="cls-20" x="105.33" y="0">o</tspan><tspan class="cls-16" x="128.06" y="0">r</tspan><tspan x="146.26" y="0">d </tspan><tspan x="0" y="75.55">Ch</tspan><tspan class="cls-11" x="46.21" y="75.55">a</tspan><tspan x="71.59" y="75.55">nged</tspan></text><text class="cls-10" transform="matrix(0.86, -0.1, 0.12, 0.99, 2149.47, 515.37)"><tspan class="cls-17">R</tspan><tspan x="27.39" y="0">oom </tspan><tspan class="cls-11" x="-10.14" y="75.55">B</tspan><tspan x="14.17" y="75.55">oo</tspan><tspan class="cls-30" x="59.62" y="75.55">k</tspan><tspan x="82.42" y="75.55">ed</tspan></text><text class="cls-10" transform="matrix(0.86, 0.12, -0.14, 0.99, 2397.33, 679.03)"><tspan class="cls-31">P</tspan><tspan class="cls-12" x="19.58" y="0">a</tspan><tspan x="44.32" y="0">tie</tspan><tspan class="cls-32" x="97.27" y="0">n</tspan><tspan x="122.21" y="0">t </tspan><tspan x="0" y="75.55">Di</tspan><tspan class="cls-11" x="34.94" y="75.55">s</tspan><tspan x="49.55" y="75.55">cha</tspan><tspan class="cls-17" x="117.17" y="75.55">r</tspan><tspan class="cls-33" x="134.73" y="75.55">ged</tspan></text><text class="cls-34" transform="translate(3093.39 608.46) rotate(17.42) scale(0.87 1)">Don<tspan class="cls-35" x="87.47" y="0">a</tspan><tspan class="cls-36" x="117.34" y="0">tion </tspan><tspan x="0" y="91.2">Ma</tspan><tspan class="cls-37" x="73.95" y="91.2">d</tspan><tspan x="104.04" y="91.2">e</tspan></text><text class="cls-10" transform="translate(2745.42 539.64) rotate(-2.03) scale(0.87 1)">News<tspan class="cls-38" x="98.03" y="0">l</tspan><tspan class="cls-33" x="110.05" y="0">e</tspan><tspan class="cls-17" x="130.39" y="0">t</tspan><tspan class="cls-39" x="149.09" y="0">t</tspan><tspan x="166.53" y="0">er</tspan><tspan x="0" y="75.55">Se</tspan><tspan class="cls-17" x="39.41" y="75.55">n</tspan><tspan x="64.34" y="75.55">t</tspan></text></svg>