<svg id="Laag_1" data-name="Laag 1" xmlns="http://www.w3.org/2000/svg" viewBox="0 0 920.99 103.05"><defs><style>.cls-1{fill:#951b1e;}.cls-2{fill:#ea222b;}.cls-3{fill:#27a8dd;}.cls-4{fill:#056793;}.cls-5{fill:#076692;}</style></defs><title>Logo_Nexxtmove_RGB</title><rect class="cls-1" x="154.93" y="380.15" width="35.4" height="35.4" transform="translate(184.28 -375.44) rotate(45)"/><path class="cls-2" d="M552.71,428.05l23.81-32.27h20.65L573.3,428.05l23.87,32.48H576.52Z" transform="translate(-147.6 -369.9)"/><rect class="cls-2" x="205" y="380.15" width="35.4" height="35.4" transform="translate(513.89 151.8) rotate(135)"/><rect class="cls-2" x="255.06" y="380.15" width="35.4" height="35.4" transform="translate(599.35 116.4) rotate(135)"/><path class="cls-1" d="M451.42,460.76H432.84s-37.58-57.13-39.79-60.71v60.71H374.19V369.9h17.35l41,61.49-.13-61.49h19Z" transform="translate(-147.6 -369.9)"/><path class="cls-1" d="M516.58,439.83l8.95,10.33c-4.41,5.78-13.91,11.42-27.95,11.42-21.89,0-35-13.76-35-33.31S475.69,395,495.79,395c19,0,29.87,12.94,29.87,30.7a38.88,38.88,0,0,1-.55,6.89H481.33c1.66,8.67,7.71,14.73,18.45,14.73A21.2,21.2,0,0,0,516.58,439.83Zm-35.25-17.07h27.13c-.14-7.71-4.82-13.49-12.67-13.49C488.36,409.27,482.71,414.09,481.33,422.76Z" transform="translate(-147.6 -369.9)"/><path class="cls-1" d="M549.48,460.53H528.83l23.88-32.48-23.88-32.27h20.65l23.82,32.27Z" transform="translate(-147.6 -369.9)"/><rect class="cls-3" x="205" y="430.21" width="35.4" height="35.4" transform="translate(234.35 -396.18) rotate(45)"/><rect class="cls-3" x="308.19" y="405.18" width="35.4" height="35.4" transform="translate(707.75 121.57) rotate(135)"/><path class="cls-3" d="M719.61,456.9s-6.88,4.68-19.41,4.68c-17.07,0-26-9.22-26-27.67V410.1h-7.92l26.92-37.3v23H716V410.1H693.18v23c0,8.67,3.3,12.53,10.6,12.53a16.52,16.52,0,0,0,10.46-3.45Z" transform="translate(-147.6 -369.9)"/><path class="cls-3" d="M621,428.05l23.82-32.27H665.5l-23.88,32.27,23.88,32.48H644.85Z" transform="translate(-147.6 -369.9)"/><path class="cls-4" d="M1063.21,382.39a11,11,0,0,1,3.93,14.88,10.81,10.81,0,0,1-4,4,10.91,10.91,0,0,1-11,0,11,11,0,0,1,0-18.89,10.48,10.48,0,0,1,5.51-1.5A10.63,10.63,0,0,1,1063.21,382.39Zm-1,17.09a8.84,8.84,0,0,0,3.21-12.05,8.92,8.92,0,0,0-3.2-3.2,9,9,0,0,0-9,0,8.9,8.9,0,0,0-3.22,3.23,8.77,8.77,0,0,0,7.64,13.19A8.85,8.85,0,0,0,1062.18,399.48Zm-.39-7.48a3.48,3.48,0,0,1-1.59,1.33l2.38,3.54h-2.32l-1.89-3.15h-2.77v3.15h-2V386.2h4.4a4.88,4.88,0,0,1,3.23.95,3.32,3.32,0,0,1,1.14,2.71A3.86,3.86,0,0,1,1061.79,392Zm-6.19,0H1058a2.63,2.63,0,0,0,1.8-.57,1.94,1.94,0,0,0,.64-1.56,1.83,1.83,0,0,0-.64-1.51,2.83,2.83,0,0,0-1.8-.51h-2.38Z" transform="translate(-147.6 -369.9)"/><rect class="cls-5" x="255.06" y="430.21" width="35.4" height="35.4" transform="translate(249.01 -431.58) rotate(45)"/><polygon class="cls-5" points="50.07 27.95 25.03 52.98 0 78.02 25.03 103.05 50.07 78.02 75.1 52.98 50.07 27.95"/><path class="cls-5" d="M744.93,408.86c3-7.71,9.65-13.77,20.8-13.77,11.56,0,19,5.92,22.3,14.73,2.89-8.26,9.22-14.73,20.93-14.73,15.83,0,24.09,11,24.09,25.88v39.79H814.19V424.28c0-7.85-3.72-12.94-11.29-12.94-9.36,0-13.08,8.39-13.08,15.83v33.59H771V424.28c0-7.85-3.72-12.94-11.29-12.94-9.22,0-12.94,8.39-12.94,15.83v33.59H727.87v-65h17.06Z" transform="translate(-147.6 -369.9)"/><path class="cls-5" d="M909.51,428.27c0,19.55-13.63,33.31-34.14,33.31s-34.28-13.76-34.28-33.31S854.72,395,875.37,395,909.51,408.72,909.51,428.27Zm-19.14,0c0-10.46-5.78-17.9-15-17.9s-15.15,7.44-15.15,17.9,5.78,17.9,15.15,17.9S890.37,438.87,890.37,428.27Z" transform="translate(-147.6 -369.9)"/><path class="cls-5" d="M944.88,441.17l16-45.39h18.86l-24.64,65H934l-24.92-65h20.23Z" transform="translate(-147.6 -369.9)"/><path class="cls-5" d="M1033.4,439.83l8.94,10.33c-4.4,5.78-13.9,11.42-27.94,11.42-21.89,0-35-13.76-35-33.31S992.51,395,1012.61,395c19,0,29.87,12.94,29.87,30.7a38.88,38.88,0,0,1-.55,6.89H998.15c1.65,8.67,7.71,14.73,18.45,14.73A21.21,21.21,0,0,0,1033.4,439.83Zm-35.25-17.07h27.12c-.13-7.71-4.82-13.49-12.66-13.49C1005.17,409.27,999.53,414.09,998.15,422.76Z" transform="translate(-147.6 -369.9)"/><path class="cls-5" d="M617.8,460.53H597.15L621,428.05l-23.88-32.27H617.8l23.82,32.27Z" transform="translate(-147.6 -369.9)"/></svg>